<?xml version="1.0" encoding="UTF-8"?>
<svg id="Layer_1" xmlns="http://www.w3.org/2000/svg" version="1.1" viewBox="0 0 248 248">
  <!-- Generator: Adobe Illustrator 29.0.1, SVG Export Plug-In . SVG Version: 2.1.0 Build 192)  -->
  <defs>
    <style>
      .st0 {
        display: none;
        fill: #fff;
      }

      .st1, .st2 {
        fill: #596bd7;
      }

      .st2 {
        fill-rule: evenodd;
      }
    </style>
  </defs>
  <rect class="st0" width="248" height="248"/>
  <path class="st2" d="M8,8v56h56V8H8ZM16,16v40h40V16H16ZM24,24v24h24v-24h-24ZM240,8v56h-56V8h56ZM232,16v40h-40V16h40ZM224,24v24h-24v-24h24ZM8,240v-56h56v56H8ZM16,232v-40h40v40H16ZM24,224v-24h24v24h-24Z" shape-rendering="geometricPrecision"/>
  <path class="st1" d="M8,80v8h8v-8h-8ZM8,112v8h8v-8h-8ZM8,120v8h8v-8h-8ZM8,128v8h8v-8h-8ZM8,152v8h8v-8h-8ZM8,160v8h8v-8h-8ZM8,168v8h8v-8h-8ZM16,80v8h8v-8h-8ZM16,88v8h8v-8h-8ZM16,96v8h8v-8h-8ZM16,112v8h8v-8h-8ZM16,120v8h8v-8h-8ZM16,128v8h8v-8h-8ZM16,136v8h8v-8h-8ZM16,168v8h8v-8h-8ZM24,72v8h8v-8h-8ZM24,80v8h8v-8h-8ZM24,88v8h8v-8h-8ZM24,96v8h8v-8h-8ZM24,104v8h8v-8h-8ZM24,112v8h8v-8h-8ZM24,128v8h8v-8h-8ZM24,152v8h8v-8h-8ZM32,72v8h8v-8h-8ZM32,80v8h8v-8h-8ZM32,104v8h8v-8h-8ZM32,120v8h8v-8h-8ZM32,128v8h8v-8h-8ZM32,144v8h8v-8h-8ZM32,152v8h8v-8h-8ZM32,168v8h8v-8h-8ZM40,72v8h8v-8h-8ZM40,88v8h8v-8h-8ZM40,104v8h8v-8h-8ZM40,128v8h8v-8h-8ZM40,136v8h8v-8h-8ZM40,144v8h8v-8h-8ZM40,152v8h8v-8h-8ZM40,160v8h8v-8h-8ZM40,168v8h8v-8h-8ZM48,72v8h8v-8h-8ZM48,80v8h8v-8h-8ZM48,88v8h8v-8h-8ZM48,168v8h8v-8h-8ZM56,72v8h8v-8h-8ZM56,88v8h8v-8h-8ZM56,104v8h8v-8h-8ZM56,120v8h8v-8h-8ZM56,136v8h8v-8h-8ZM56,152v8h8v-8h-8ZM56,168v8h8v-8h-8ZM64,72v8h8v-8h-8ZM64,88v8h8v-8h-8ZM64,96v8h8v-8h-8ZM64,104v8h8v-8h-8ZM64,120v8h8v-8h-8ZM64,136v8h8v-8h-8ZM64,160v8h8v-8h-8ZM64,168v8h8v-8h-8ZM72,8v8h8v-8h-8ZM72,24v8h8v-8h-8ZM72,32v8h8v-8h-8ZM72,40v8h8v-8h-8ZM72,48v8h8v-8h-8ZM72,56v8h8v-8h-8ZM72,80v8h8v-8h-8ZM72,88v8h8v-8h-8ZM72,96v8h8v-8h-8ZM72,136v8h8v-8h-8ZM72,144v8h8v-8h-8ZM72,160v8h8v-8h-8ZM72,184v8h8v-8h-8ZM72,192v8h8v-8h-8ZM72,200v8h8v-8h-8ZM72,208v8h8v-8h-8ZM72,216v8h8v-8h-8ZM80,8v8h8v-8h-8ZM80,16v8h8v-8h-8ZM80,32v8h8v-8h-8ZM80,40v8h8v-8h-8ZM80,48v8h8v-8h-8ZM80,80v8h8v-8h-8ZM80,104v8h8v-8h-8ZM80,112v8h8v-8h-8ZM80,120v8h8v-8h-8ZM80,128v8h8v-8h-8ZM80,144v8h8v-8h-8ZM80,152v8h8v-8h-8ZM80,160v8h8v-8h-8ZM80,176v8h8v-8h-8ZM80,184v8h8v-8h-8ZM80,192v8h8v-8h-8ZM80,200v8h8v-8h-8ZM80,232v8h8v-8h-8ZM88,24v8h8v-8h-8ZM88,56v8h8v-8h-8ZM88,64v8h8v-8h-8ZM88,88v8h8v-8h-8ZM88,104v8h8v-8h-8ZM88,112v8h8v-8h-8ZM88,120v8h8v-8h-8ZM88,128v8h8v-8h-8ZM88,136v8h8v-8h-8ZM88,144v8h8v-8h-8ZM88,176v8h8v-8h-8ZM88,184v8h8v-8h-8ZM88,192v8h8v-8h-8ZM96,16v8h8v-8h-8ZM96,24v8h8v-8h-8ZM96,48v8h8v-8h-8ZM96,64v8h8v-8h-8ZM96,72v8h8v-8h-8ZM96,104v8h8v-8h-8ZM96,112v8h8v-8h-8ZM96,128v8h8v-8h-8ZM96,160v8h8v-8h-8ZM96,184v8h8v-8h-8ZM96,192v8h8v-8h-8ZM96,208v8h8v-8h-8ZM96,224v8h8v-8h-8ZM104,8v8h8v-8h-8ZM104,32v8h8v-8h-8ZM104,56v8h8v-8h-8ZM104,72v8h8v-8h-8ZM104,80v8h8v-8h-8ZM104,88v8h8v-8h-8ZM104,96v8h8v-8h-8ZM104,104v8h8v-8h-8ZM104,120v8h8v-8h-8ZM104,128v8h8v-8h-8ZM104,144v8h8v-8h-8ZM104,168v8h8v-8h-8ZM104,176v8h8v-8h-8ZM104,208v8h8v-8h-8ZM104,216v8h8v-8h-8ZM112,8v8h8v-8h-8ZM112,16v8h8v-8h-8ZM112,24v8h8v-8h-8ZM112,48v8h8v-8h-8ZM112,72v8h8v-8h-8ZM112,80v8h8v-8h-8ZM112,88v8h8v-8h-8ZM112,96v8h8v-8h-8ZM112,128v8h8v-8h-8ZM112,136v8h8v-8h-8ZM112,144v8h8v-8h-8ZM112,152v8h8v-8h-8ZM112,160v8h8v-8h-8ZM112,168v8h8v-8h-8ZM112,176v8h8v-8h-8ZM112,184v8h8v-8h-8ZM112,192v8h8v-8h-8ZM112,200v8h8v-8h-8ZM112,232v8h8v-8h-8ZM120,16v8h8v-8h-8ZM120,48v8h8v-8h-8ZM120,56v8h8v-8h-8ZM120,80v8h8v-8h-8ZM120,88v8h8v-8h-8ZM120,96v8h8v-8h-8ZM120,144v8h8v-8h-8ZM120,152v8h8v-8h-8ZM120,184v8h8v-8h-8ZM120,208v8h8v-8h-8ZM120,216v8h8v-8h-8ZM128,8v8h8v-8h-8ZM128,24v8h8v-8h-8ZM128,40v8h8v-8h-8ZM128,64v8h8v-8h-8ZM128,80v8h8v-8h-8ZM128,96v8h8v-8h-8ZM128,120v8h8v-8h-8ZM128,136v8h8v-8h-8ZM128,160v8h8v-8h-8ZM128,176v8h8v-8h-8ZM128,184v8h8v-8h-8ZM128,192v8h8v-8h-8ZM128,224v8h8v-8h-8ZM136,8v8h8v-8h-8ZM136,16v8h8v-8h-8ZM136,56v8h8v-8h-8ZM136,80v8h8v-8h-8ZM136,88v8h8v-8h-8ZM136,96v8h8v-8h-8ZM136,136v8h8v-8h-8ZM136,144v8h8v-8h-8ZM136,208v8h8v-8h-8ZM136,216v8h8v-8h-8ZM144,8v8h8v-8h-8ZM144,16v8h8v-8h-8ZM144,72v8h8v-8h-8ZM144,104v8h8v-8h-8ZM144,112v8h8v-8h-8ZM144,120v8h8v-8h-8ZM144,128v8h8v-8h-8ZM144,152v8h8v-8h-8ZM144,160v8h8v-8h-8ZM144,168v8h8v-8h-8ZM144,176v8h8v-8h-8ZM144,184v8h8v-8h-8ZM144,200v8h8v-8h-8ZM144,216v8h8v-8h-8ZM144,232v8h8v-8h-8ZM152,8v8h8v-8h-8ZM152,24v8h8v-8h-8ZM152,40v8h8v-8h-8ZM152,48v8h8v-8h-8ZM152,56v8h8v-8h-8ZM152,64v8h8v-8h-8ZM152,72v8h8v-8h-8ZM152,80v8h8v-8h-8ZM152,88v8h8v-8h-8ZM152,96v8h8v-8h-8ZM152,112v8h8v-8h-8ZM152,120v8h8v-8h-8ZM152,128v8h8v-8h-8ZM152,136v8h8v-8h-8ZM152,144v8h8v-8h-8ZM152,152v8h8v-8h-8ZM152,184v8h8v-8h-8ZM152,192v8h8v-8h-8ZM152,216v8h8v-8h-8ZM160,8v8h8v-8h-8ZM160,32v8h8v-8h-8ZM160,40v8h8v-8h-8ZM160,72v8h8v-8h-8ZM160,88v8h8v-8h-8ZM160,112v8h8v-8h-8ZM160,128v8h8v-8h-8ZM160,152v8h8v-8h-8ZM160,160v8h8v-8h-8ZM160,168v8h8v-8h-8ZM160,184v8h8v-8h-8ZM160,192v8h8v-8h-8ZM160,224v8h8v-8h-8ZM168,8v8h8v-8h-8ZM168,32v8h8v-8h-8ZM168,40v8h8v-8h-8ZM168,48v8h8v-8h-8ZM168,56v8h8v-8h-8ZM168,64v8h8v-8h-8ZM168,72v8h8v-8h-8ZM168,88v8h8v-8h-8ZM168,96v8h8v-8h-8ZM168,104v8h8v-8h-8ZM168,120v8h8v-8h-8ZM168,128v8h8v-8h-8ZM168,144v8h8v-8h-8ZM168,160v8h8v-8h-8ZM168,168v8h8v-8h-8ZM168,176v8h8v-8h-8ZM168,184v8h8v-8h-8ZM168,192v8h8v-8h-8ZM168,200v8h8v-8h-8ZM168,216v8h8v-8h-8ZM168,224v8h8v-8h-8ZM168,232v8h8v-8h-8ZM176,72v8h8v-8h-8ZM176,104v8h8v-8h-8ZM176,128v8h8v-8h-8ZM176,136v8h8v-8h-8ZM176,168v8h8v-8h-8ZM176,200v8h8v-8h-8ZM176,208v8h8v-8h-8ZM176,216v8h8v-8h-8ZM176,224v8h8v-8h-8ZM176,232v8h8v-8h-8ZM184,96v8h8v-8h-8ZM184,104v8h8v-8h-8ZM184,144v8h8v-8h-8ZM184,152v8h8v-8h-8ZM184,160v8h8v-8h-8ZM184,168v8h8v-8h-8ZM184,184v8h8v-8h-8ZM184,200v8h8v-8h-8ZM184,208v8h8v-8h-8ZM184,216v8h8v-8h-8ZM192,72v8h8v-8h-8ZM192,80v8h8v-8h-8ZM192,88v8h8v-8h-8ZM192,120v8h8v-8h-8ZM192,136v8h8v-8h-8ZM192,152v8h8v-8h-8ZM192,168v8h8v-8h-8ZM192,200v8h8v-8h-8ZM192,224v8h8v-8h-8ZM200,72v8h8v-8h-8ZM200,104v8h8v-8h-8ZM200,136v8h8v-8h-8ZM200,152v8h8v-8h-8ZM200,168v8h8v-8h-8ZM200,176v8h8v-8h-8ZM200,184v8h8v-8h-8ZM200,192v8h8v-8h-8ZM200,200v8h8v-8h-8ZM200,216v8h8v-8h-8ZM200,232v8h8v-8h-8ZM208,72v8h8v-8h-8ZM208,96v8h8v-8h-8ZM208,112v8h8v-8h-8ZM208,120v8h8v-8h-8ZM208,128v8h8v-8h-8ZM208,144v8h8v-8h-8ZM208,152v8h8v-8h-8ZM208,160v8h8v-8h-8ZM208,168v8h8v-8h-8ZM208,208v8h8v-8h-8ZM208,216v8h8v-8h-8ZM216,72v8h8v-8h-8ZM216,80v8h8v-8h-8ZM216,88v8h8v-8h-8ZM216,96v8h8v-8h-8ZM216,104v8h8v-8h-8ZM216,112v8h8v-8h-8ZM216,128v8h8v-8h-8ZM216,136v8h8v-8h-8ZM216,144v8h8v-8h-8ZM216,160v8h8v-8h-8ZM216,184v8h8v-8h-8ZM216,192v8h8v-8h-8ZM216,200v8h8v-8h-8ZM216,208v8h8v-8h-8ZM216,216v8h8v-8h-8ZM216,224v8h8v-8h-8ZM224,80v8h8v-8h-8ZM224,88v8h8v-8h-8ZM224,96v8h8v-8h-8ZM224,128v8h8v-8h-8ZM224,144v8h8v-8h-8ZM224,152v8h8v-8h-8ZM224,168v8h8v-8h-8ZM224,176v8h8v-8h-8ZM224,192v8h8v-8h-8ZM224,208v8h8v-8h-8ZM224,224v8h8v-8h-8ZM232,72v8h8v-8h-8ZM232,88v8h8v-8h-8ZM232,112v8h8v-8h-8ZM232,120v8h8v-8h-8ZM232,128v8h8v-8h-8ZM232,160v8h8v-8h-8ZM232,176v8h8v-8h-8ZM232,184v8h8v-8h-8ZM232,192v8h8v-8h-8ZM232,200v8h8v-8h-8ZM232,216v8h8v-8h-8Z" shape-rendering="geometricPrecision"/>
</svg>